<svg width="3355" height="4891" xmlns="http://www.w3.org/2000/svg" xmlns:xlink="http://www.w3.org/1999/xlink" xml:space="preserve" overflow="hidden"><defs><clipPath id="clip0"><rect x="568" y="242" width="3355" height="4891"/></clipPath></defs><g clip-path="url(#clip0)" transform="translate(-568 -242)"><path d="M0 0 920.909 4.77172" stroke="#000000" stroke-width="20.625" stroke-miterlimit="8" fill="none" fill-rule="evenodd" transform="matrix(1 0 0 -1 2442.5 2326.27)"/><rect x="1488.5" y="2136.5" width="472" height="379" stroke="#AE5A21" stroke-width="4.58333" stroke-miterlimit="8" fill="#ED7D31"/><text fill="#FFFFFF" font-family="Arial,Arial_MSFontService,sans-serif" font-weight="400" font-size="64" transform="matrix(1 0 0 1 1620.84 2272)">Square<tspan font-size="64" x="35.5209" y="77">Root</tspan><tspan font-size="64" x="-16.0416" y="154">Sampler</tspan></text><rect x="2605.5" y="2002.5" width="66" height="651" stroke="#2F528F" stroke-width="4.58333" stroke-miterlimit="8" fill="#4472C4"/><rect x="2728.5" y="1999.5" width="67" height="651" stroke="#2F528F" stroke-width="4.58333" stroke-miterlimit="8" fill="#4472C4"/><rect x="2976.5" y="1999.5" width="66" height="650" stroke="#2F528F" stroke-width="4.58333" stroke-miterlimit="8" fill="#4472C4"/><rect x="2852.5" y="2002.5" width="67" height="651" stroke="#2F528F" stroke-width="4.58333" stroke-miterlimit="8" fill="#4472C4"/><path d="M3093 2674C3093 2703.82 3088.97 2728 3084 2728L2834 2728C2829.03 2728 2825 2752.18 2825 2782 2825 2752.18 2820.97 2728 2816 2728L2566 2728C2561.03 2728 2557 2703.82 2557 2674" stroke="#000000" stroke-width="2.29167" stroke-miterlimit="8" fill="none" fill-rule="evenodd"/><text font-family="Arial,Arial_MSFontService,sans-serif" font-weight="400" font-size="64" transform="matrix(1 0 0 1 2725.64 2839)">Frozen <tspan font-size="64" x="-39.2561" y="77">backbone</tspan></text><rect x="3363.5" y="2091.5" width="66" height="69" stroke="#AE5A21" stroke-width="4.58333" stroke-miterlimit="8" fill="#ED7D31"/><rect x="3363.5" y="2157.5" width="66" height="68" stroke="#AE5A21" stroke-width="4.58333" stroke-miterlimit="8" fill="#ED7D31"/><rect x="3363.5" y="2222.5" width="66" height="69" stroke="#AE5A21" stroke-width="4.58333" stroke-miterlimit="8" fill="#ED7D31"/><rect x="3363.5" y="2288.5" width="66" height="69" stroke="#AE5A21" stroke-width="4.58333" stroke-miterlimit="8" fill="#ED7D31"/><rect x="3363.5" y="2354.5" width="66" height="69" stroke="#AE5A21" stroke-width="4.58333" stroke-miterlimit="8" fill="#ED7D31"/><rect x="3363.5" y="2423.5" width="66" height="69" stroke="#AE5A21" stroke-width="4.58333" stroke-miterlimit="8" fill="#ED7D31"/><rect x="3363.5" y="2492.5" width="66" height="69" stroke="#AE5A21" stroke-width="4.58333" stroke-miterlimit="8" fill="#ED7D31"/><path d="M3389.5 2124C3389.5 2119.86 3392.63 2116.5 3396.5 2116.5 3400.37 2116.5 3403.5 2119.86 3403.5 2124 3403.5 2128.14 3400.37 2131.5 3396.5 2131.5 3392.63 2131.5 3389.5 2128.14 3389.5 2124Z" stroke="#000000" stroke-width="4.58333" stroke-miterlimit="8" fill-rule="evenodd"/><path d="M3389.5 2190C3389.5 2185.86 3392.63 2182.5 3396.5 2182.5 3400.37 2182.5 3403.5 2185.86 3403.5 2190 3403.5 2194.14 3400.37 2197.5 3396.5 2197.5 3392.63 2197.5 3389.5 2194.14 3389.5 2190Z" stroke="#000000" stroke-width="4.58333" stroke-miterlimit="8" fill-rule="evenodd"/><path d="M3389.5 2255.5C3389.5 2251.08 3392.63 2247.5 3396.5 2247.5 3400.37 2247.5 3403.5 2251.08 3403.5 2255.5 3403.5 2259.92 3400.37 2263.5 3396.5 2263.5 3392.63 2263.5 3389.5 2259.92 3389.5 2255.5Z" stroke="#000000" stroke-width="4.58333" stroke-miterlimit="8" fill-rule="evenodd"/><path d="M3389.5 2321.5C3389.5 2317.08 3392.63 2313.5 3396.5 2313.5 3400.37 2313.5 3403.5 2317.08 3403.5 2321.5 3403.5 2325.92 3400.37 2329.5 3396.5 2329.5 3392.63 2329.5 3389.5 2325.92 3389.5 2321.5Z" stroke="#000000" stroke-width="4.58333" stroke-miterlimit="8" fill-rule="evenodd"/><path d="M3389.5 2387.5C3389.5 2383.08 3392.63 2379.5 3396.5 2379.5 3400.37 2379.5 3403.5 2383.08 3403.5 2387.5 3403.5 2391.92 3400.37 2395.5 3396.5 2395.5 3392.63 2395.5 3389.5 2391.92 3389.5 2387.5Z" stroke="#000000" stroke-width="4.58333" stroke-miterlimit="8" fill-rule="evenodd"/><path d="M3389.5 2456C3389.5 2451.86 3392.63 2448.5 3396.5 2448.5 3400.37 2448.5 3403.5 2451.86 3403.5 2456 3403.5 2460.14 3400.37 2463.5 3396.5 2463.5 3392.63 2463.5 3389.5 2460.14 3389.5 2456Z" stroke="#000000" stroke-width="4.58333" stroke-miterlimit="8" fill-rule="evenodd"/><path d="M3389.5 2525C3389.5 2520.86 3392.63 2517.5 3396.5 2517.5 3400.37 2517.5 3403.5 2520.86 3403.5 2525 3403.5 2529.14 3400.37 2532.5 3396.5 2532.5 3392.63 2532.5 3389.5 2529.14 3389.5 2525Z" stroke="#000000" stroke-width="4.58333" stroke-miterlimit="8" fill-rule="evenodd"/><text font-family="Arial,Arial_MSFontService,sans-serif" font-weight="400" font-size="64" transform="matrix(1 0 0 1 3272.28 2839)">Classifier<tspan font-size="64" x="60.729" y="77">head</tspan></text><rect x="2388.5" y="2130.5" width="54" height="391" stroke="#000000" stroke-width="4.58333" stroke-miterlimit="8"/><path d="M2478 2674C2478 2700.23 2474.46 2721.5 2470.08 2721.5L2413.42 2721.5C2409.04 2721.5 2405.5 2742.77 2405.5 2769 2405.5 2742.77 2401.96 2721.5 2397.58 2721.5L2340.92 2721.5C2336.54 2721.5 2333 2700.23 2333 2674" stroke="#000000" stroke-width="2.29167" stroke-miterlimit="8" fill="none" fill-rule="evenodd"/><text font-family="Arial,Arial_MSFontService,sans-serif" font-weight="400" font-size="64" transform="matrix(1 0 0 1 2327.57 2841)">Inputs</text><path d="M1995.55 2315.19 2307.32 2316.73 2307.22 2337.35 1995.45 2335.81ZM2297.11 2296.05 2358.83 2327.29 2296.8 2357.92Z"/><path d="M702 1846.48C702 1822.46 721.465 1803 745.475 1803L3757.52 1803C3781.54 1803 3801 1822.46 3801 1846.48L3801 2966.52C3801 2990.54 3781.54 3010 3757.52 3010L745.475 3010C721.465 3010 702 2990.54 702 2966.52Z" stroke="#ED7D31" stroke-width="13.75" stroke-miterlimit="8" fill="none" fill-rule="evenodd"/><text fill="#ED7D31" font-family="Arial,Arial_MSFontService,sans-serif" font-weight="700" font-size="83" transform="matrix(1 0 0 1 798.661 1938)">2nd Stage</text><path d="M3358.78 1971.3C3361.72 1971.3 3364.25 1971.54 3366.37 1972.02L3364.62 1979.65 3360.67 1979.65C3360.25 1977.95 3359.7 1976.72 3359.03 1975.97 3358.35 1975.22 3357.36 1974.85 3356.04 1974.85 3354.33 1974.85 3352.89 1975.32 3351.71 1976.26 3350.52 1977.2 3349.51 1978.6 3348.67 1980.46 3347.84 1982.32 3347.06 1984.82 3346.34 1987.96L3345.22 1992.86 3356.76 1992.86 3355.77 1997.4 3344.18 1997.4 3335.83 2036.57C3334.45 2043.07 3332.34 2047.91 3329.49 2051.1 3326.65 2054.29 3323.07 2055.89 3318.76 2055.89 3317.5 2055.89 3316.51 2055.81 3315.79 2055.66L3316.55 2051.71C3316.85 2051.8 3317.56 2051.84 3318.67 2051.84 3320.01 2051.84 3321.17 2051.5 3322.13 2050.81 3323.08 2050.12 3323.97 2048.92 3324.8 2047.22 3325.62 2045.51 3326.38 2043.14 3327.07 2040.12L3336.72 1997.4 3329.13 1997.4 3329.81 1994.3C3331.81 1994.18 3333.26 1994.01 3334.14 1993.8 3335.03 1993.59 3335.71 1993.28 3336.21 1992.86 3336.7 1992.44 3337.12 1991.89 3337.47 1991.22 3337.81 1990.55 3338.25 1989.31 3338.79 1987.51 3340.38 1982.12 3342.83 1978.07 3346.14 1975.36 3349.45 1972.65 3353.66 1971.3 3358.78 1971.3Z" fill-rule="evenodd"/><text fill="#000000" fill-opacity="0" font-family="Arial,Arial_MSFontService,sans-serif" font-size="84.5878" x="3315.79" y="2045.31">ğ‘“</text><path d="M3408.62 2024.34C3407.34 2024.34 3406.14 2024.62 3405.04 2025.18 3403.94 2025.73 3402.93 2026.5 3402.01 2027.47 3401.1 2028.44 3400.28 2029.56 3399.56 2030.84 3398.84 2032.11 3398.24 2033.47 3397.75 2034.93 3397.25 2036.38 3396.88 2037.86 3396.63 2039.37 3396.38 2040.89 3396.26 2042.37 3396.26 2043.81 3396.26 2046.16 3396.59 2047.91 3397.25 2049.06 3397.92 2050.2 3398.99 2050.78 3400.48 2050.78 3401.5 2050.78 3402.62 2050.42 3403.83 2049.71 3405.04 2049 3406.22 2048.01 3407.36 2046.72 3408.51 2045.43 3409.55 2043.88 3410.49 2042.06 3411.43 2040.24 3412.13 2038.21 3412.61 2035.99 3412.9 2034.81 3413.14 2033.63 3413.33 2032.44 3413.53 2031.25 3413.63 2030.18 3413.63 2029.22 3413.63 2027.45 3413.23 2026.2 3412.43 2025.45 3411.64 2024.71 3410.37 2024.34 3408.62 2024.34ZM3437.47 2021.1C3439.08 2021.1 3440.33 2021.63 3441.21 2022.69 3442.1 2023.75 3442.54 2025.14 3442.54 2026.86 3442.54 2027.84 3442.39 2028.71 3442.08 2029.48L3442.54 2029.67C3444.74 2026.73 3446.88 2024.57 3448.97 2023.18 3451.05 2021.8 3453.19 2021.1 3455.39 2021.1 3456.22 2021.1 3457 2021.15 3457.73 2021.23 3458.46 2021.32 3459.17 2021.43 3459.84 2021.56L3458.18 2029.48 3454.38 2029.48C3454.27 2028.17 3453.99 2027.23 3453.55 2026.66 3453.1 2026.1 3452.45 2025.81 3451.6 2025.81 3451.1 2025.79 3450.52 2025.95 3449.87 2026.27 3449.21 2026.6 3448.52 2027.07 3447.79 2027.68 3447.06 2028.29 3446.33 2029.01 3445.61 2029.84 3444.89 2030.67 3444.21 2031.57 3443.57 2032.55 3442.93 2033.53 3442.36 2034.58 3441.88 2035.68 3441.4 2036.78 3441.04 2037.89 3440.8 2039L3437.47 2054.51 3431.05 2054.51 3435.96 2033.18C3436.27 2031.91 3436.48 2030.86 3436.6 2030.03 3436.72 2029.21 3436.78 2028.51 3436.78 2027.94 3436.78 2026.35 3436.14 2025.55 3434.85 2025.55 3434.44 2025.55 3434.03 2025.63 3433.62 2025.8 3433.22 2025.96 3432.8 2026.21 3432.36 2026.53 3431.93 2026.86 3431.45 2027.28 3430.92 2027.78 3430.4 2028.28 3429.81 2028.87 3429.16 2029.54L3426.9 2027.42C3427.99 2026.3 3428.99 2025.35 3429.89 2024.55 3430.8 2023.76 3431.67 2023.1 3432.49 2022.59 3433.32 2022.08 3434.14 2021.7 3434.95 2021.46 3435.75 2021.22 3436.59 2021.1 3437.47 2021.1ZM3408.03 2021.1C3409.69 2021.1 3411.18 2021.31 3412.5 2021.71 3413.82 2022.11 3415.03 2022.66 3416.15 2023.36L3419.26 2021.1 3421.91 2021.79C3420.47 2028.27 3419.04 2034.68 3417.64 2041.03 3416.23 2047.37 3414.92 2053.35 3413.69 2058.95 3413.28 2060.46 3413.07 2061.68 3413.07 2062.62 3413.07 2063.43 3413.38 2064 3413.99 2064.34 3414.6 2064.67 3415.65 2064.91 3417.13 2065.04L3416.67 2067.2 3405.45 2067.2C3406.37 2063.62 3407.22 2060.3 3408.02 2057.24 3408.81 2054.17 3409.68 2050.85 3410.62 2047.28L3410.09 2047.14C3409 2048.56 3407.94 2049.77 3406.91 2050.78 3405.87 2051.78 3404.86 2052.6 3403.86 2053.25 3402.87 2053.89 3401.88 2054.36 3400.89 2054.65 3399.89 2054.95 3398.9 2055.09 3397.89 2055.09 3395.3 2055.09 3393.29 2054.16 3391.87 2052.3 3390.46 2050.43 3389.75 2047.72 3389.75 2044.17 3389.75 2042.05 3389.97 2040.02 3390.42 2038.07 3390.86 2036.11 3391.5 2034.28 3392.31 2032.57 3393.13 2030.86 3394.11 2029.3 3395.24 2027.89 3396.38 2026.48 3397.62 2025.28 3398.97 2024.28 3400.32 2023.27 3401.76 2022.49 3403.29 2021.94 3404.82 2021.38 3406.4 2021.1 3408.03 2021.1ZM3371.99 2021.1C3374.11 2021.1 3376.05 2021.23 3377.83 2021.5 3379.61 2021.76 3381.34 2022.14 3383.02 2022.64L3381.45 2030.03 3378.53 2030.03C3378.29 2028.07 3377.65 2026.62 3376.59 2025.68 3375.53 2024.75 3373.89 2024.28 3371.66 2024.28 3370.77 2024.28 3369.94 2024.4 3369.18 2024.64 3368.41 2024.88 3367.76 2025.21 3367.22 2025.63 3366.67 2026.06 3366.24 2026.57 3365.94 2027.16 3365.63 2027.74 3365.48 2028.39 3365.48 2029.09 3365.48 2029.72 3365.56 2030.3 3365.71 2030.82 3365.86 2031.34 3366.16 2031.86 3366.61 2032.36 3367.06 2032.86 3367.69 2033.38 3368.51 2033.93 3369.33 2034.47 3370.4 2035.09 3371.73 2035.79 3373.13 2036.56 3374.29 2037.29 3375.21 2037.98 3376.14 2038.68 3376.88 2039.39 3377.42 2040.11 3377.97 2040.83 3378.35 2041.6 3378.57 2042.42 3378.79 2043.23 3378.89 2044.15 3378.89 2045.15 3378.89 2046.7 3378.58 2048.09 3377.95 2049.32 3377.31 2050.55 3376.43 2051.59 3375.3 2052.44 3374.16 2053.29 3372.83 2053.95 3371.29 2054.41 3369.75 2054.86 3368.07 2055.09 3366.23 2055.09 3364.23 2055.09 3362.25 2054.96 3360.31 2054.7 3358.37 2054.44 3356.32 2053.99 3354.16 2053.36L3355.86 2045.9 3358.71 2045.9C3358.82 2047.93 3359.46 2049.45 3360.62 2050.46 3361.79 2051.48 3363.59 2051.99 3366.04 2051.99 3368.22 2051.99 3369.94 2051.52 3371.19 2050.58 3372.44 2049.64 3373.07 2048.33 3373.07 2046.65 3373.07 2045.89 3372.99 2045.23 3372.84 2044.67 3372.69 2044.12 3372.39 2043.59 3371.94 2043.09 3371.5 2042.59 3370.88 2042.07 3370.11 2041.53 3369.34 2041 3368.33 2040.38 3367.08 2039.69 3365.8 2038.97 3364.69 2038.26 3363.76 2037.56 3362.84 2036.86 3362.07 2036.15 3361.47 2035.43 3360.87 2034.71 3360.43 2033.96 3360.15 2033.18 3359.87 2032.39 3359.72 2031.55 3359.72 2030.66 3359.72 2029.28 3360.01 2028.01 3360.59 2026.84 3361.17 2025.68 3361.99 2024.67 3363.06 2023.82 3364.13 2022.97 3365.42 2022.3 3366.92 2021.82 3368.43 2021.34 3370.12 2021.1 3371.99 2021.1ZM3474.63 2013.48 3479.73 2013.48 3477.86 2021.79 3488.99 2021.79 3488.24 2025.42 3477.15 2025.42 3473.81 2039.13C3473.59 2040.05 3473.41 2040.87 3473.27 2041.6 3473.13 2042.33 3473.01 2042.99 3472.93 2043.58 3472.84 2044.17 3472.78 2044.7 3472.75 2045.18 3472.71 2045.66 3472.7 2046.11 3472.7 2046.52 3472.7 2047.83 3472.97 2048.86 3473.51 2049.6 3474.06 2050.34 3474.95 2050.71 3476.2 2050.71 3477.24 2050.71 3478.36 2050.32 3479.53 2049.55 3480.71 2048.77 3482.05 2047.56 3483.56 2045.9L3485.81 2048.19C3484.7 2049.43 3483.64 2050.49 3482.64 2051.36 3481.64 2052.24 3480.66 2052.95 3479.7 2053.51 3478.74 2054.06 3477.79 2054.47 3476.85 2054.72 3475.91 2054.97 3474.95 2055.09 3473.97 2055.09 3471.38 2055.09 3469.44 2054.48 3468.17 2053.26 3466.89 2052.04 3466.25 2050.24 3466.25 2047.86 3466.25 2047.06 3466.31 2046.17 3466.43 2045.2 3466.55 2044.23 3466.72 2043.28 3466.94 2042.37L3470.83 2025.42 3465.2 2025.42 3465.86 2022.9C3467.17 2022.9 3468.19 2022.78 3468.92 2022.53 3469.65 2022.28 3470.26 2021.93 3470.77 2021.5 3471.09 2021.19 3471.41 2020.81 3471.71 2020.37 3472.02 2019.92 3472.33 2019.38 3472.63 2018.75 3472.94 2018.12 3473.25 2017.37 3473.56 2016.51 3473.88 2015.65 3474.23 2014.64 3474.63 2013.48Z" fill-rule="evenodd"/><text fill="#000000" fill-opacity="0" font-family="Arial,Arial_MSFontService,sans-serif" font-size="53.7178" x="3354.16" y="2060.48">ğ‘ ğ‘ğ‘Ÿğ‘¡</text><path d="M3467 2674C3467 2700.23 3463.46 2721.5 3459.08 2721.5L3402.42 2721.5C3398.04 2721.5 3394.5 2742.77 3394.5 2769 3394.5 2742.77 3390.96 2721.5 3386.58 2721.5L3329.92 2721.5C3325.54 2721.5 3322 2700.23 3322 2674" stroke="#000000" stroke-width="2.29167" stroke-miterlimit="8" fill="none" fill-rule="evenodd"/><path d="M843.5 2189.33C843.5 2154.63 908.419 2126.5 988.5 2126.5 1068.58 2126.5 1133.5 2154.63 1133.5 2189.33L1133.5 2440.67C1133.5 2475.37 1068.58 2503.5 988.5 2503.5 908.419 2503.5 843.5 2475.37 843.5 2440.67Z" fill="#FFFFFF" fill-rule="evenodd"/><path d="M1133.5 2189.33C1133.5 2224.04 1068.58 2252.17 988.5 2252.17 908.419 2252.17 843.5 2224.04 843.5 2189.33" stroke="#4472C4" stroke-width="4.58333" stroke-miterlimit="8" fill="none" fill-rule="evenodd"/><path d="M843.5 2189.33C843.5 2154.63 908.419 2126.5 988.5 2126.5 1068.58 2126.5 1133.5 2154.63 1133.5 2189.33L1133.5 2440.67C1133.5 2475.37 1068.58 2503.5 988.5 2503.5 908.419 2503.5 843.5 2475.37 843.5 2440.67Z" stroke="#4472C4" stroke-width="4.58333" stroke-miterlimit="8" fill="none" fill-rule="evenodd"/><text font-family="Arial,Arial_MSFontService,sans-serif" font-weight="400" font-size="83" transform="matrix(1 0 0 1 793.789 2642)">Training set</text><path d="M2530.5 1994.67C2530.5 1939.35 2575.35 1894.5 2630.67 1894.5L3031.33 1894.5C3086.65 1894.5 3131.5 1939.35 3131.5 1994.67L3131.5 2851.33C3131.5 2906.65 3086.65 2951.5 3031.33 2951.5L2630.67 2951.5C2575.35 2951.5 2530.5 2906.65 2530.5 2851.33Z" stroke="#000000" stroke-width="6.875" stroke-miterlimit="8" stroke-dasharray="27.5 20.625" fill="none" fill-rule="evenodd"/><path d="M1191.5 2330.19 1393.74 2330.19 1393.74 2350.81 1191.5 2350.81ZM1383.43 2309.56 1445.3 2340.5 1383.43 2371.44Z"/><path d="M0 0 928.243 4.77172" stroke="#000000" stroke-width="20.625" stroke-miterlimit="8" fill="none" fill-rule="evenodd" transform="matrix(1 0 0 -1 2434.5 869.272)"/><rect x="1488.5" y="679.5" width="472" height="380" stroke="#507E32" stroke-width="4.58333" stroke-miterlimit="8" fill="#70AD47"/><text fill="#FFFFFF" font-family="Arial,Arial_MSFontService,sans-serif" font-weight="400" font-size="64" transform="matrix(1 0 0 1 1603.08 854)">Instance<tspan font-size="64" x="1.71875" y="77">Sampler</tspan></text><rect x="2605.5" y="545.5" width="66" height="651" stroke="#2F528F" stroke-width="4.58333" stroke-miterlimit="8" fill="#4472C4"/><rect x="2728.5" y="542.5" width="67" height="651" stroke="#2F528F" stroke-width="4.58333" stroke-miterlimit="8" fill="#4472C4"/><rect x="2976.5" y="542.5" width="66" height="650" stroke="#2F528F" stroke-width="4.58333" stroke-miterlimit="8" fill="#4472C4"/><rect x="2852.5" y="545.5" width="67" height="651" stroke="#2F528F" stroke-width="4.58333" stroke-miterlimit="8" fill="#4472C4"/><path d="M3093 1217C3093 1247.1 3088.93 1271.5 3083.92 1271.5L2834.08 1271.5C2829.07 1271.5 2825 1295.9 2825 1326 2825 1295.9 2820.93 1271.5 2815.92 1271.5L2566.08 1271.5C2561.07 1271.5 2557 1247.1 2557 1217" stroke="#000000" stroke-width="2.29167" stroke-miterlimit="8" fill="none" fill-rule="evenodd"/><text font-family="Arial,Arial_MSFontService,sans-serif" font-weight="400" font-size="64" transform="matrix(1 0 0 1 2691.83 1382)">Trainable<tspan font-size="64" x="-5.4541" y="77">backbone</tspan></text><rect x="3363.5" y="634.5" width="66" height="69.0001" stroke="#507E32" stroke-width="4.58333" stroke-miterlimit="8" fill="#70AD47"/><rect x="3363.5" y="700.5" width="66" height="69.0001" stroke="#507E32" stroke-width="4.58333" stroke-miterlimit="8" fill="#70AD47"/><rect x="3363.5" y="766.5" width="66" height="68.0001" stroke="#507E32" stroke-width="4.58333" stroke-miterlimit="8" fill="#70AD47"/><rect x="3363.5" y="831.5" width="66" height="69.0001" stroke="#507E32" stroke-width="4.58333" stroke-miterlimit="8" fill="#70AD47"/><rect x="3363.5" y="897.5" width="66" height="69.0001" stroke="#507E32" stroke-width="4.58333" stroke-miterlimit="8" fill="#70AD47"/><rect x="3363.5" y="966.5" width="66" height="68.9998" stroke="#507E32" stroke-width="4.58333" stroke-miterlimit="8" fill="#70AD47"/><rect x="3363.5" y="1035.5" width="66" height="69.0001" stroke="#507E32" stroke-width="4.58333" stroke-miterlimit="8" fill="#70AD47"/><path d="M3389.5 667C3389.5 662.858 3392.63 659.5 3396.5 659.5 3400.37 659.5 3403.5 662.858 3403.5 667 3403.5 671.142 3400.37 674.5 3396.5 674.5 3392.63 674.5 3389.5 671.142 3389.5 667Z" stroke="#000000" stroke-width="4.58333" stroke-miterlimit="8" fill-rule="evenodd"/><path d="M3389.5 733C3389.5 728.858 3392.63 725.5 3396.5 725.5 3400.37 725.5 3403.5 728.858 3403.5 733 3403.5 737.142 3400.37 740.5 3396.5 740.5 3392.63 740.5 3389.5 737.142 3389.5 733Z" stroke="#000000" stroke-width="4.58333" stroke-miterlimit="8" fill-rule="evenodd"/><path d="M3389.5 799C3389.5 794.858 3392.63 791.5 3396.5 791.5 3400.37 791.5 3403.5 794.858 3403.5 799 3403.5 803.142 3400.37 806.5 3396.5 806.5 3392.63 806.5 3389.5 803.142 3389.5 799Z" stroke="#000000" stroke-width="4.58333" stroke-miterlimit="8" fill-rule="evenodd"/><path d="M3389.5 864.5C3389.5 860.082 3392.63 856.5 3396.5 856.5 3400.37 856.5 3403.5 860.082 3403.5 864.5 3403.5 868.918 3400.37 872.5 3396.5 872.5 3392.63 872.5 3389.5 868.918 3389.5 864.5Z" stroke="#000000" stroke-width="4.58333" stroke-miterlimit="8" fill-rule="evenodd"/><path d="M3389.5 930.5C3389.5 926.082 3392.63 922.5 3396.5 922.5 3400.37 922.5 3403.5 926.082 3403.5 930.5 3403.5 934.918 3400.37 938.5 3396.5 938.5 3392.63 938.5 3389.5 934.918 3389.5 930.5Z" stroke="#000000" stroke-width="4.58333" stroke-miterlimit="8" fill-rule="evenodd"/><path d="M3389.5 999.5C3389.5 995.082 3392.63 991.5 3396.5 991.5 3400.37 991.5 3403.5 995.082 3403.5 999.5 3403.5 1003.92 3400.37 1007.5 3396.5 1007.5 3392.63 1007.5 3389.5 1003.92 3389.5 999.5Z" stroke="#000000" stroke-width="4.58333" stroke-miterlimit="8" fill-rule="evenodd"/><path d="M3389.5 1068C3389.5 1063.86 3392.63 1060.5 3396.5 1060.5 3400.37 1060.5 3403.5 1063.86 3403.5 1068 3403.5 1072.14 3400.37 1075.5 3396.5 1075.5 3392.63 1075.5 3389.5 1072.14 3389.5 1068Z" stroke="#000000" stroke-width="4.58333" stroke-miterlimit="8" fill-rule="evenodd"/><text font-family="Arial,Arial_MSFontService,sans-serif" font-weight="400" font-size="64" transform="matrix(1 0 0 1 3272.28 1382)">Classifier<tspan font-size="64" x="60.729" y="77">head</tspan></text><rect x="2380.5" y="674.5" width="54" height="390" stroke="#000000" stroke-width="4.58333" stroke-miterlimit="8"/><path d="M2471 1217C2471 1243.23 2467.46 1264.5 2463.08 1264.5L2406.42 1264.5C2402.04 1264.5 2398.5 1285.77 2398.5 1312 2398.5 1285.77 2394.96 1264.5 2390.58 1264.5L2333.92 1264.5C2329.54 1264.5 2326 1243.23 2326 1217" stroke="#000000" stroke-width="2.29167" stroke-miterlimit="8" fill="none" fill-rule="evenodd"/><text font-family="Arial,Arial_MSFontService,sans-serif" font-weight="400" font-size="64" transform="matrix(1 0 0 1 2320.24 1384)">Inputs</text><path d="M0.159812-10.3113 250.682-6.42847 250.362 14.1941-0.159812 10.3113ZM240.69-27.2108 302.078 4.68186 239.731 34.6568Z" transform="matrix(1 0 0 -1 2021.5 864.182)"/><path d="M702 383.107C702 363.166 718.166 347 738.107 347L3764.89 347C3784.83 347 3801 363.166 3801 383.107L3801 1516.89C3801 1536.83 3784.83 1553 3764.89 1553L738.107 1553C718.166 1553 702 1536.83 702 1516.89Z" stroke="#70AD47" stroke-width="13.75" stroke-miterlimit="8" fill="none" fill-rule="evenodd"/><text fill="#70AD47" font-family="Arial,Arial_MSFontService,sans-serif" font-weight="700" font-size="83" transform="matrix(1 0 0 1 778.937 470)">1st <tspan font-size="83" x="142.083" y="0">Stage</tspan></text><path d="M3404.13 515.439C3407.07 515.439 3409.6 515.679 3411.73 516.158L3409.97 523.795 3406.02 523.795C3405.6 522.088 3405.05 520.86 3404.38 520.111 3403.71 519.363 3402.71 518.988 3401.39 518.988 3399.69 518.988 3398.24 519.46 3397.06 520.403 3395.88 521.347 3394.86 522.747 3394.03 524.603 3393.19 526.46 3392.41 528.961 3391.69 532.105L3390.57 537.002 3402.11 537.002 3401.12 541.539 3389.53 541.539 3381.18 580.711C3379.8 587.21 3377.69 592.054 3374.84 595.243 3372 598.433 3368.42 600.027 3364.11 600.027 3362.85 600.027 3361.86 599.952 3361.14 599.803L3361.91 595.85C3362.21 595.939 3362.91 595.984 3364.02 595.984 3365.37 595.984 3366.52 595.64 3367.48 594.951 3368.44 594.262 3369.33 593.064 3370.15 591.357 3370.97 589.65 3371.73 587.284 3372.42 584.26L3382.08 541.539 3374.49 541.539 3375.16 538.439C3377.17 538.32 3378.61 538.155 3379.49 537.945 3380.38 537.736 3381.07 537.421 3381.56 537.002 3382.05 536.583 3382.47 536.036 3382.82 535.362 3383.16 534.688 3383.6 533.453 3384.14 531.656 3385.73 526.266 3388.18 522.215 3391.49 519.505 3394.8 516.795 3399.01 515.439 3404.13 515.439Z" fill-rule="evenodd"/><text fill="#000000" fill-opacity="0" font-family="Arial,Arial_MSFontService,sans-serif" font-size="84.5879" x="3361.14" y="589.454">ğ‘“</text><path d="M3413.61 565.572 3415.22 565.572 3410.38 587.361C3410.07 588.647 3409.86 589.672 3409.74 590.436 3409.62 591.199 3409.56 591.886 3409.56 592.497 3409.56 593.326 3409.73 593.925 3410.06 594.296 3410.4 594.667 3410.91 594.852 3411.59 594.852 3411.98 594.852 3412.37 594.776 3412.76 594.623 3413.16 594.471 3413.58 594.231 3414.02 593.904 3414.47 593.576 3414.96 593.156 3415.5 592.644 3416.03 592.131 3416.62 591.515 3417.28 590.796L3419.5 592.955C3418.37 594.111 3417.34 595.087 3416.41 595.883 3415.48 596.679 3414.61 597.328 3413.78 597.829 3412.95 598.331 3412.14 598.691 3411.34 598.909 3410.54 599.127 3409.7 599.236 3408.8 599.236 3407.98 599.236 3407.23 599.083 3406.56 598.778 3405.9 598.473 3405.33 598.053 3404.85 597.518 3404.37 596.984 3404 596.346 3403.73 595.605 3403.47 594.863 3403.34 594.045 3403.34 593.151 3403.34 592.431 3403.43 591.537 3403.6 590.468 3403.78 589.4 3404 588.238 3404.27 586.984 3404.55 585.73 3404.85 584.416 3405.17 583.042 3405.5 581.668 3405.82 580.305 3406.14 578.953 3406.45 577.601 3406.74 576.297 3406.99 575.043 3407.24 573.789 3407.42 572.65 3407.53 571.625 3407.57 571.45 3407.59 571.281 3407.59 571.118 3407.59 570.954 3407.59 570.807 3407.59 570.676 3407.55 569.825 3407.25 569.204 3406.69 568.811 3406.14 568.419 3405.15 568.201 3403.73 568.157L3404.13 565.932ZM3411.72 552.388 3418.26 552.388 3416.66 559.422 3410.18 559.422Z" fill-rule="evenodd"/><text fill="#000000" fill-opacity="0" font-family="Arial,Arial_MSFontService,sans-serif" font-size="46.8477" x="3403.34" y="593.38">ğ‘–</text><path d="M3467 1217C3467 1243.23 3463.46 1264.5 3459.08 1264.5L3402.42 1264.5C3398.04 1264.5 3394.5 1285.77 3394.5 1312 3394.5 1285.77 3390.96 1264.5 3386.58 1264.5L3329.92 1264.5C3325.54 1264.5 3322 1243.23 3322 1217" stroke="#000000" stroke-width="2.29167" stroke-miterlimit="8" fill="none" fill-rule="evenodd"/><path d="M2530.5 540.669C2530.5 485.347 2575.35 440.5 2630.67 440.5L3031.33 440.5C3086.65 440.5 3131.5 485.347 3131.5 540.669L3131.5 1397.33C3131.5 1452.65 3086.65 1497.5 3031.33 1497.5L2630.67 1497.5C2575.35 1497.5 2530.5 1452.65 2530.5 1397.33Z" stroke="#000000" stroke-width="6.875" stroke-miterlimit="8" stroke-dasharray="27.5 20.625" fill="none" fill-rule="evenodd"/><path d="M848.5 717.5C848.5 682.706 913.419 654.5 993.5 654.5 1073.58 654.5 1138.5 682.706 1138.5 717.5L1138.5 969.5C1138.5 1004.29 1073.58 1032.5 993.5 1032.5 913.419 1032.5 848.5 1004.29 848.5 969.5Z" fill="#FFFFFF" fill-rule="evenodd"/><path d="M1138.5 717.5C1138.5 752.294 1073.58 780.5 993.5 780.5 913.419 780.5 848.5 752.294 848.5 717.5" stroke="#4472C4" stroke-width="4.58333" stroke-miterlimit="8" fill="none" fill-rule="evenodd"/><path d="M848.5 717.5C848.5 682.706 913.419 654.5 993.5 654.5 1073.58 654.5 1138.5 682.706 1138.5 717.5L1138.5 969.5C1138.5 1004.29 1073.58 1032.5 993.5 1032.5 913.419 1032.5 848.5 1004.29 848.5 969.5Z" stroke="#4472C4" stroke-width="4.58333" stroke-miterlimit="8" fill="none" fill-rule="evenodd"/><text font-family="Arial,Arial_MSFontService,sans-serif" font-weight="400" font-size="83" transform="matrix(1 0 0 1 798.661 1171)">Training set</text><path d="M1195.5 858.188 1397.74 858.188 1397.74 878.813 1195.5 878.813ZM1387.43 837.563 1449.3 868.501 1387.43 899.438Z"/><path d="M832.5 3853.33C832.5 3818.63 897.419 3790.5 977.5 3790.5 1057.58 3790.5 1122.5 3818.63 1122.5 3853.33L1122.5 4104.67C1122.5 4139.37 1057.58 4167.5 977.5 4167.5 897.419 4167.5 832.5 4139.37 832.5 4104.67Z" fill="#FFFFFF" fill-rule="evenodd"/><path d="M1122.5 3853.33C1122.5 3888.04 1057.58 3916.17 977.5 3916.17 897.419 3916.17 832.5 3888.04 832.5 3853.33" stroke="#4472C4" stroke-width="4.58333" stroke-miterlimit="8" fill="none" fill-rule="evenodd"/><path d="M832.5 3853.33C832.5 3818.63 897.419 3790.5 977.5 3790.5 1057.58 3790.5 1122.5 3818.63 1122.5 3853.33L1122.5 4104.67C1122.5 4139.37 1057.58 4167.5 977.5 4167.5 897.419 4167.5 832.5 4139.37 832.5 4104.67Z" stroke="#4472C4" stroke-width="4.58333" stroke-miterlimit="8" fill="none" fill-rule="evenodd"/><text font-family="Arial,Arial_MSFontService,sans-serif" font-weight="400" font-size="83" transform="matrix(1 0 0 1 830.611 4320)">Test set</text><path d="M3351.5 4177.43C3490.54 4211.42 3490.54 4143.44 3629.56 4143.44L3629.56 3966.76 3351.5 3966.76ZM3374.41 3966.76 3374.41 3943.85 3650.57 3943.85 3650.57 4121.64C3640.08 4121.64 3629.56 4122.87 3629.56 4122.87L3629.56 3966.76ZM3395.94 3943.85 3395.94 3921.5 3674.5 3921.5 3674.5 4098.73C3662.54 4098.73 3650.57 4099.66 3650.57 4099.66L3650.57 3943.85Z" fill="#FFFFFF" fill-rule="evenodd"/><path d="M3351.5 3966.76 3629.56 3966.76 3629.56 4143.44C3490.54 4143.44 3490.54 4211.42 3351.5 4177.43ZM3374.41 3966.76 3374.41 3943.85 3650.57 3943.85 3650.57 4121.64C3640.08 4121.64 3629.56 4122.87 3629.56 4122.87M3395.94 3943.85 3395.94 3921.5 3674.5 3921.5 3674.5 4098.73C3662.54 4098.73 3650.57 4099.66 3650.57 4099.66" stroke="#000000" stroke-width="4.58333" stroke-miterlimit="8" fill="none" fill-rule="evenodd"/><path d="M2494.9 4427.16 2167.5 4040.5" stroke="#000000" stroke-width="20.625" stroke-miterlimit="8" fill="none" fill-rule="evenodd"/><path d="M0 0 321.284 333.757" stroke="#000000" stroke-width="20.625" stroke-miterlimit="8" fill="none" fill-rule="evenodd" transform="matrix(-1 0 0 1 2488.78 3706.5)"/><rect x="2915.5" y="3813.5" width="67" height="68" stroke="#BC8C00" stroke-width="4.58333" stroke-miterlimit="8" fill="#FFC000"/><rect x="2915.5" y="3878.5" width="67" height="69" stroke="#BC8C00" stroke-width="4.58333" stroke-miterlimit="8" fill="#FFC000"/><rect x="2915.5" y="3944.5" width="67" height="69" stroke="#BC8C00" stroke-width="4.58333" stroke-miterlimit="8" fill="#FFC000"/><rect x="2915.5" y="4010.5" width="67" height="69" stroke="#BC8C00" stroke-width="4.58333" stroke-miterlimit="8" fill="#FFC000"/><rect x="2915.5" y="4076.5" width="67" height="69" stroke="#BC8C00" stroke-width="4.58333" stroke-miterlimit="8" fill="#FFC000"/><rect x="2915.5" y="4145.5" width="67" height="68.9995" stroke="#BC8C00" stroke-width="4.58333" stroke-miterlimit="8" fill="#FFC000"/><rect x="2915.5" y="4214.5" width="67" height="68" stroke="#BC8C00" stroke-width="4.58333" stroke-miterlimit="8" fill="#FFC000"/><path d="M2941.5 3848C2941.5 3843.86 2944.63 3840.5 2948.5 3840.5 2952.37 3840.5 2955.5 3843.86 2955.5 3848 2955.5 3852.14 2952.37 3855.5 2948.5 3855.5 2944.63 3855.5 2941.5 3852.14 2941.5 3848Z" stroke="#000000" stroke-width="4.58333" stroke-miterlimit="8" fill-rule="evenodd"/><path d="M2941.5 3914C2941.5 3909.86 2944.63 3906.5 2948.5 3906.5 2952.37 3906.5 2955.5 3909.86 2955.5 3914 2955.5 3918.14 2952.37 3921.5 2948.5 3921.5 2944.63 3921.5 2941.5 3918.14 2941.5 3914Z" stroke="#000000" stroke-width="4.58333" stroke-miterlimit="8" fill-rule="evenodd"/><path d="M2941.5 3979.5C2941.5 3975.08 2944.63 3971.5 2948.5 3971.5 2952.37 3971.5 2955.5 3975.08 2955.5 3979.5 2955.5 3983.92 2952.37 3987.5 2948.5 3987.5 2944.63 3987.5 2941.5 3983.92 2941.5 3979.5Z" stroke="#000000" stroke-width="4.58333" stroke-miterlimit="8" fill-rule="evenodd"/><path d="M2941.5 4045.5C2941.5 4041.08 2944.63 4037.5 2948.5 4037.5 2952.37 4037.5 2955.5 4041.08 2955.5 4045.5 2955.5 4049.92 2952.37 4053.5 2948.5 4053.5 2944.63 4053.5 2941.5 4049.92 2941.5 4045.5Z" stroke="#000000" stroke-width="4.58333" stroke-miterlimit="8" fill-rule="evenodd"/><path d="M2941.5 4111.5C2941.5 4107.08 2944.63 4103.5 2948.5 4103.5 2952.37 4103.5 2955.5 4107.08 2955.5 4111.5 2955.5 4115.92 2952.37 4119.5 2948.5 4119.5 2944.63 4119.5 2941.5 4115.92 2941.5 4111.5Z" stroke="#000000" stroke-width="4.58333" stroke-miterlimit="8" fill-rule="evenodd"/><path d="M2941.5 4180C2941.5 4175.86 2944.63 4172.5 2948.5 4172.5 2952.37 4172.5 2955.5 4175.86 2955.5 4180 2955.5 4184.14 2952.37 4187.5 2948.5 4187.5 2944.63 4187.5 2941.5 4184.14 2941.5 4180Z" stroke="#000000" stroke-width="4.58333" stroke-miterlimit="8" fill-rule="evenodd"/><path d="M2941.5 4249C2941.5 4244.86 2944.63 4241.5 2948.5 4241.5 2952.37 4241.5 2955.5 4244.86 2955.5 4249 2955.5 4253.14 2952.37 4256.5 2948.5 4256.5 2944.63 4256.5 2941.5 4253.14 2941.5 4249Z" stroke="#000000" stroke-width="4.58333" stroke-miterlimit="8" fill-rule="evenodd"/><path d="M2555.79 3507.17 2898.7 3830.14 2897.13 3831.81 2554.21 3508.83ZM2904.01 3817.82 2914.6 3846.69 2885.15 3837.84Z" fill="#70AD47"/><path d="M2555.79 3573.17 2898.7 3896.14 2897.13 3897.81 2554.21 3574.83ZM2904.01 3883.82 2914.6 3912.69 2885.15 3903.84Z" fill="#70AD47"/><path d="M2555.79 3639.17 2898.7 3962.14 2897.13 3963.81 2554.21 3640.83ZM2904.01 3949.82 2914.6 3978.69 2885.15 3969.84Z" fill="#70AD47"/><path d="M0.840735-0.778524 338.755 364.138 337.073 365.695-0.840735 0.778524ZM344.888 352.211 353.484 381.731 324.711 370.895Z" fill="#ED7D31" transform="matrix(1 0 0 -1 2561 4425.73)"/><path d="M0.840735-0.778524 338.755 364.138 337.073 365.695-0.840735 0.778524ZM344.888 352.211 353.484 381.731 324.711 370.895Z" fill="#ED7D31" transform="matrix(1 0 0 -1 2561 4491.73)"/><path d="M0.840735-0.778524 338.755 364.138 337.073 365.695-0.840735 0.778524ZM344.888 352.211 353.484 381.731 324.711 370.895Z" fill="#ED7D31" transform="matrix(1 0 0 -1 2561 4560.73)"/><path d="M0.840735-0.778524 338.755 364.138 337.073 365.695-0.840735 0.778524ZM344.888 352.211 353.484 381.731 324.711 370.895Z" fill="#ED7D31" transform="matrix(1 0 0 -1 2561 4629.73)"/><path d="M3042.5 4044.19 3242.94 4044.19 3242.94 4064.81 3042.5 4064.81ZM3232.62 4023.56 3294.5 4054.5 3232.62 4085.44Z"/><path d="M0 0 582.761 6.56391" stroke="#000000" stroke-width="20.625" stroke-miterlimit="8" fill="none" fill-rule="evenodd" transform="matrix(1 0 0 -1 1651.5 4047.06)"/><rect x="1796.5" y="3718.5" width="67" height="650" stroke="#2F528F" stroke-width="4.58333" stroke-miterlimit="8" fill="#4472C4"/><rect x="1920.5" y="3715.5" width="67" height="651" stroke="#2F528F" stroke-width="4.58333" stroke-miterlimit="8" fill="#4472C4"/><rect x="2167.5" y="3714.5" width="67" height="651" stroke="#2F528F" stroke-width="4.58333" stroke-miterlimit="8" fill="#4472C4"/><rect x="2044.5" y="3718.5" width="65.9999" height="650" stroke="#2F528F" stroke-width="4.58333" stroke-miterlimit="8" fill="#4472C4"/><rect x="1605.5" y="3846.5" width="54" height="391" stroke="#000000" stroke-width="4.58333" stroke-miterlimit="8"/><path d="M1158.55 4026.19 1470.32 4027.73 1470.22 4048.35 1158.45 4046.81ZM1460.11 4007.05 1521.83 4038.29 1459.8 4068.92Z"/><rect x="2495.5" y="4194.5" width="66" height="69" stroke="#AE5A21" stroke-width="4.58333" stroke-miterlimit="8" fill="#ED7D31"/><rect x="2495.5" y="4260.5" width="66" height="69" stroke="#AE5A21" stroke-width="4.58333" stroke-miterlimit="8" fill="#ED7D31"/><rect x="2495.5" y="4326.5" width="66" height="69" stroke="#AE5A21" stroke-width="4.58333" stroke-miterlimit="8" fill="#ED7D31"/><rect x="2495.5" y="4392.5" width="66" height="69" stroke="#AE5A21" stroke-width="4.58333" stroke-miterlimit="8" fill="#ED7D31"/><rect x="2495.5" y="4458.5" width="66" height="68" stroke="#AE5A21" stroke-width="4.58333" stroke-miterlimit="8" fill="#ED7D31"/><rect x="2495.5" y="4526.5" width="66" height="69" stroke="#AE5A21" stroke-width="4.58333" stroke-miterlimit="8" fill="#ED7D31"/><rect x="2495.5" y="4595.5" width="66" height="68.9995" stroke="#AE5A21" stroke-width="4.58333" stroke-miterlimit="8" fill="#ED7D31"/><path d="M2521.5 4227.5C2521.5 4223.08 2524.63 4219.5 2528.5 4219.5 2532.37 4219.5 2535.5 4223.08 2535.5 4227.5 2535.5 4231.92 2532.37 4235.5 2528.5 4235.5 2524.63 4235.5 2521.5 4231.92 2521.5 4227.5Z" stroke="#000000" stroke-width="4.58333" stroke-miterlimit="8" fill-rule="evenodd"/><path d="M2521.5 4293.5C2521.5 4289.08 2524.63 4285.5 2528.5 4285.5 2532.37 4285.5 2535.5 4289.08 2535.5 4293.5 2535.5 4297.92 2532.37 4301.5 2528.5 4301.5 2524.63 4301.5 2521.5 4297.92 2521.5 4293.5Z" stroke="#000000" stroke-width="4.58333" stroke-miterlimit="8" fill-rule="evenodd"/><path d="M2521.5 4359C2521.5 4354.86 2524.63 4351.5 2528.5 4351.5 2532.37 4351.5 2535.5 4354.86 2535.5 4359 2535.5 4363.14 2532.37 4366.5 2528.5 4366.5 2524.63 4366.5 2521.5 4363.14 2521.5 4359Z" stroke="#000000" stroke-width="4.58333" stroke-miterlimit="8" fill-rule="evenodd"/><path d="M2521.5 4425C2521.5 4420.86 2524.63 4417.5 2528.5 4417.5 2532.37 4417.5 2535.5 4420.86 2535.5 4425 2535.5 4429.14 2532.37 4432.5 2528.5 4432.5 2524.63 4432.5 2521.5 4429.14 2521.5 4425Z" stroke="#000000" stroke-width="4.58333" stroke-miterlimit="8" fill-rule="evenodd"/><path d="M2521.5 4491C2521.5 4486.86 2524.63 4483.5 2528.5 4483.5 2532.37 4483.5 2535.5 4486.86 2535.5 4491 2535.5 4495.14 2532.37 4498.5 2528.5 4498.5 2524.63 4498.5 2521.5 4495.14 2521.5 4491Z" stroke="#000000" stroke-width="4.58333" stroke-miterlimit="8" fill-rule="evenodd"/><path d="M2521.5 4559.5C2521.5 4555.08 2524.63 4551.5 2528.5 4551.5 2532.37 4551.5 2535.5 4555.08 2535.5 4559.5 2535.5 4563.92 2532.37 4567.5 2528.5 4567.5 2524.63 4567.5 2521.5 4563.92 2521.5 4559.5Z" stroke="#000000" stroke-width="4.58333" stroke-miterlimit="8" fill-rule="evenodd"/><path d="M2521.5 4628.5C2521.5 4624.08 2524.63 4620.5 2528.5 4620.5 2532.37 4620.5 2535.5 4624.08 2535.5 4628.5 2535.5 4632.92 2532.37 4636.5 2528.5 4636.5 2524.63 4636.5 2521.5 4632.92 2521.5 4628.5Z" stroke="#000000" stroke-width="4.58333" stroke-miterlimit="8" fill-rule="evenodd"/><path d="M2486.74 4072.11C2489.38 4072.11 2491.67 4072.33 2493.59 4072.76L2492.01 4079.65 2488.44 4079.65C2488.06 4078.11 2487.57 4077 2486.96 4076.32 2486.35 4075.65 2485.45 4075.31 2484.26 4075.31 2482.72 4075.31 2481.42 4075.74 2480.35 4076.59 2479.29 4077.44 2478.37 4078.7 2477.62 4080.38 2476.86 4082.05 2476.16 4084.31 2475.51 4087.15L2474.5 4091.56 2484.91 4091.56 2484.02 4095.66 2473.57 4095.66 2466.03 4131C2464.78 4136.86 2462.88 4141.23 2460.31 4144.11 2457.75 4146.98 2454.52 4148.42 2450.63 4148.42 2449.49 4148.42 2448.6 4148.36 2447.95 4148.22L2448.64 4144.65C2448.91 4144.73 2449.55 4144.78 2450.55 4144.78 2451.76 4144.78 2452.8 4144.46 2453.67 4143.84 2454.53 4143.22 2455.33 4142.14 2456.08 4140.6 2456.82 4139.06 2457.5 4136.93 2458.12 4134.2L2466.84 4095.66 2459.99 4095.66 2460.6 4092.86C2462.41 4092.75 2463.71 4092.6 2464.51 4092.41 2465.3 4092.22 2465.93 4091.94 2466.37 4091.56 2466.82 4091.18 2467.2 4090.69 2467.51 4090.08 2467.82 4089.48 2468.22 4088.36 2468.7 4086.74 2470.13 4081.88 2472.34 4078.22 2475.33 4075.78 2478.31 4073.33 2482.12 4072.11 2486.74 4072.11Z" fill-rule="evenodd"/><text fill="#000000" fill-opacity="0" font-family="Arial,Arial_MSFontService,sans-serif" font-size="76.313" x="2447.95" y="4138.88">ğ‘“</text><path d="M2530.94 4119.69C2529.77 4119.69 2528.68 4119.94 2527.68 4120.45 2526.68 4120.96 2525.76 4121.65 2524.92 4122.53 2524.09 4123.42 2523.34 4124.44 2522.69 4125.6 2522.03 4126.76 2521.48 4128 2521.04 4129.32 2520.59 4130.65 2520.25 4132 2520.02 4133.38 2519.8 4134.76 2519.68 4136.1 2519.68 4137.41 2519.68 4139.56 2519.98 4141.15 2520.59 4142.19 2521.2 4143.23 2522.17 4143.76 2523.52 4143.76 2524.46 4143.76 2525.47 4143.43 2526.58 4142.79 2527.68 4142.14 2528.75 4141.23 2529.79 4140.06 2530.84 4138.89 2531.78 4137.48 2532.64 4135.82 2533.49 4134.16 2534.14 4132.32 2534.57 4130.29 2534.83 4129.22 2535.05 4128.14 2535.23 4127.06 2535.41 4125.98 2535.5 4125 2535.5 4124.13 2535.5 4122.52 2535.13 4121.38 2534.41 4120.7 2533.69 4120.03 2532.53 4119.69 2530.94 4119.69ZM2556.78 4116.74C2558.25 4116.74 2559.39 4117.22 2560.19 4118.19 2561 4119.15 2561.4 4120.41 2561.4 4121.98 2561.4 4122.88 2561.26 4123.67 2560.98 4124.37L2561.4 4124.54C2563.41 4121.86 2565.36 4119.89 2567.25 4118.63 2569.15 4117.37 2571.1 4116.74 2573.11 4116.74 2573.86 4116.74 2574.57 4116.78 2575.24 4116.86 2575.9 4116.94 2576.54 4117.04 2577.16 4117.16L2575.64 4124.37 2572.18 4124.37C2572.08 4123.17 2571.83 4122.32 2571.42 4121.8 2571.02 4121.29 2570.42 4121.03 2569.65 4121.03 2569.19 4121.01 2568.67 4121.15 2568.07 4121.45 2567.48 4121.74 2566.85 4122.17 2566.18 4122.73 2565.52 4123.28 2564.85 4123.94 2564.2 4124.69 2563.54 4125.45 2562.92 4126.27 2562.34 4127.17 2561.75 4128.06 2561.24 4129.01 2560.8 4130.01 2560.37 4131.01 2560.04 4132.02 2559.82 4133.03L2556.78 4147.15 2550.95 4147.15 2555.41 4127.73C2555.69 4126.58 2555.88 4125.63 2555.99 4124.87 2556.1 4124.12 2556.16 4123.48 2556.16 4122.97 2556.16 4121.52 2555.57 4120.79 2554.4 4120.79 2554.02 4120.79 2553.65 4120.87 2553.28 4121.01 2552.92 4121.16 2552.53 4121.39 2552.14 4121.68 2551.74 4121.98 2551.3 4122.36 2550.83 4122.82 2550.35 4123.27 2549.81 4123.81 2549.22 4124.42L2547.16 4122.49C2548.16 4121.48 2549.06 4120.61 2549.89 4119.88 2550.71 4119.16 2551.5 4118.56 2552.26 4118.1 2553.01 4117.63 2553.76 4117.29 2554.49 4117.07 2555.22 4116.85 2555.99 4116.74 2556.78 4116.74ZM2530.4 4116.74C2531.91 4116.74 2533.27 4116.92 2534.47 4117.29 2535.67 4117.66 2536.78 4118.16 2537.79 4118.8L2540.62 4116.74 2543.03 4117.37C2541.72 4123.26 2540.43 4129.1 2539.15 4134.88 2537.86 4140.66 2536.67 4146.1 2535.56 4151.2 2535.18 4152.57 2534.99 4153.68 2534.99 4154.54 2534.99 4155.27 2535.27 4155.79 2535.82 4156.1 2536.38 4156.41 2537.33 4156.62 2538.68 4156.74L2538.27 4158.71 2528.05 4158.71C2528.88 4155.45 2529.66 4152.43 2530.39 4149.64 2531.11 4146.85 2531.9 4143.82 2532.76 4140.57L2532.28 4140.45C2531.29 4141.74 2530.32 4142.84 2529.38 4143.76 2528.43 4144.67 2527.51 4145.42 2526.61 4146 2525.7 4146.59 2524.8 4147.02 2523.9 4147.29 2522.99 4147.55 2522.08 4147.69 2521.17 4147.69 2518.81 4147.69 2516.98 4146.84 2515.69 4145.14 2514.4 4143.44 2513.75 4140.98 2513.75 4137.74 2513.75 4135.81 2513.96 4133.96 2514.36 4132.18 2514.77 4130.41 2515.35 4128.74 2516.09 4127.18 2516.84 4125.62 2517.73 4124.2 2518.76 4122.92 2519.79 4121.64 2520.92 4120.54 2522.15 4119.63 2523.38 4118.72 2524.7 4118.01 2526.08 4117.5 2527.47 4116.99 2528.91 4116.74 2530.4 4116.74ZM2498.63 4116.74C2500.56 4116.74 2502.33 4116.86 2503.95 4117.1 2505.57 4117.34 2507.14 4117.68 2508.67 4118.14L2507.24 4124.87 2504.59 4124.87C2504.37 4123.08 2503.78 4121.76 2502.82 4120.91 2501.86 4120.06 2500.36 4119.63 2498.34 4119.63 2497.52 4119.63 2496.77 4119.74 2496.07 4119.96 2495.38 4120.18 2494.78 4120.48 2494.29 4120.87 2493.79 4121.25 2493.4 4121.71 2493.12 4122.25 2492.85 4122.79 2492.71 4123.37 2492.71 4124.01 2492.71 4124.58 2492.78 4125.11 2492.92 4125.59 2493.05 4126.06 2493.33 4126.53 2493.73 4126.99 2494.14 4127.44 2494.72 4127.92 2495.46 4128.42 2496.21 4128.91 2497.18 4129.48 2498.4 4130.11 2499.67 4130.81 2500.72 4131.47 2501.57 4132.11 2502.41 4132.74 2503.08 4133.39 2503.58 4134.05 2504.07 4134.7 2504.42 4135.4 2504.62 4136.15 2504.82 4136.89 2504.92 4137.72 2504.92 4138.63 2504.92 4140.04 2504.63 4141.31 2504.05 4142.43 2503.48 4143.55 2502.67 4144.5 2501.64 4145.27 2500.61 4146.05 2499.39 4146.64 2497.99 4147.06 2496.59 4147.48 2495.06 4147.69 2493.39 4147.69 2491.56 4147.69 2489.77 4147.57 2488 4147.33 2486.23 4147.09 2484.37 4146.68 2482.4 4146.11L2483.95 4139.32 2486.54 4139.32C2486.64 4141.16 2487.22 4142.55 2488.28 4143.47 2489.35 4144.4 2490.99 4144.86 2493.21 4144.86 2495.2 4144.86 2496.76 4144.43 2497.9 4143.58 2499.05 4142.72 2499.62 4141.53 2499.62 4140 2499.62 4139.31 2499.55 4138.71 2499.41 4138.2 2499.27 4137.69 2499 4137.21 2498.59 4136.76 2498.18 4136.3 2497.63 4135.83 2496.92 4135.34 2496.22 4134.85 2495.3 4134.29 2494.17 4133.66 2492.99 4133 2491.99 4132.36 2491.14 4131.72 2490.3 4131.09 2489.6 4130.44 2489.06 4129.79 2488.51 4129.13 2488.11 4128.45 2487.85 4127.73 2487.59 4127.02 2487.46 4126.25 2487.46 4125.44 2487.46 4124.19 2487.73 4123.03 2488.25 4121.97 2488.78 4120.91 2489.53 4119.99 2490.5 4119.21 2491.48 4118.44 2492.65 4117.83 2494.02 4117.4 2495.39 4116.96 2496.93 4116.74 2498.63 4116.74ZM2590.75 4109.8 2595.4 4109.8 2593.7 4117.37 2603.82 4117.37 2603.14 4120.67 2593.04 4120.67 2590 4133.15C2589.81 4133.99 2589.64 4134.74 2589.51 4135.4 2589.38 4136.07 2589.28 4136.67 2589.2 4137.2 2589.12 4137.74 2589.07 4138.23 2589.04 4138.66 2589.01 4139.1 2588.99 4139.51 2588.99 4139.88 2588.99 4141.07 2589.24 4142.01 2589.74 4142.68 2590.23 4143.36 2591.05 4143.7 2592.18 4143.7 2593.13 4143.7 2594.14 4143.34 2595.22 4142.64 2596.29 4141.93 2597.51 4140.83 2598.88 4139.32L2600.94 4141.4C2599.92 4142.53 2598.96 4143.5 2598.05 4144.29 2597.13 4145.09 2596.24 4145.74 2595.37 4146.24 2594.49 4146.75 2593.63 4147.12 2592.77 4147.34 2591.92 4147.57 2591.05 4147.69 2590.15 4147.69 2587.79 4147.69 2586.03 4147.13 2584.87 4146.02 2583.7 4144.91 2583.12 4143.27 2583.12 4141.1 2583.12 4140.37 2583.18 4139.56 2583.29 4138.68 2583.4 4137.79 2583.55 4136.93 2583.75 4136.1L2587.29 4120.67 2582.17 4120.67 2582.77 4118.38C2583.96 4118.38 2584.89 4118.26 2585.55 4118.04 2586.22 4117.81 2586.78 4117.49 2587.23 4117.1 2587.53 4116.82 2587.82 4116.48 2588.1 4116.07 2588.38 4115.66 2588.65 4115.17 2588.93 4114.6 2589.21 4114.02 2589.49 4113.34 2589.78 4112.56 2590.07 4111.77 2590.39 4110.85 2590.75 4109.8Z" fill-rule="evenodd"/><text fill="#000000" fill-opacity="0" font-family="Arial,Arial_MSFontService,sans-serif" font-size="48.9072" x="2482.4" y="4152.59">ğ‘ ğ‘ğ‘Ÿğ‘¡</text><rect x="2489.5" y="3474.5" width="66" height="68.9998" stroke="#507E32" stroke-width="4.58333" stroke-miterlimit="8" fill="#70AD47"/><rect x="2489.5" y="3540.5" width="66" height="68.9998" stroke="#507E32" stroke-width="4.58333" stroke-miterlimit="8" fill="#70AD47"/><rect x="2489.5" y="3606.5" width="66" height="67.9998" stroke="#507E32" stroke-width="4.58333" stroke-miterlimit="8" fill="#70AD47"/><rect x="2489.5" y="3671.5" width="66" height="68.9998" stroke="#507E32" stroke-width="4.58333" stroke-miterlimit="8" fill="#70AD47"/><rect x="2489.5" y="3737.5" width="66" height="68.9998" stroke="#507E32" stroke-width="4.58333" stroke-miterlimit="8" fill="#70AD47"/><rect x="2489.5" y="3806.5" width="66" height="69" stroke="#507E32" stroke-width="4.58333" stroke-miterlimit="8" fill="#70AD47"/><rect x="2489.5" y="3875.5" width="66" height="69" stroke="#507E32" stroke-width="4.58333" stroke-miterlimit="8" fill="#70AD47"/><path d="M2515.5 3507C2515.5 3502.86 2518.63 3499.5 2522.5 3499.5 2526.37 3499.5 2529.5 3502.86 2529.5 3507 2529.5 3511.14 2526.37 3514.5 2522.5 3514.5 2518.63 3514.5 2515.5 3511.14 2515.5 3507Z" stroke="#000000" stroke-width="4.58333" stroke-miterlimit="8" fill-rule="evenodd"/><path d="M2515.5 3573C2515.5 3568.86 2518.63 3565.5 2522.5 3565.5 2526.37 3565.5 2529.5 3568.86 2529.5 3573 2529.5 3577.14 2526.37 3580.5 2522.5 3580.5 2518.63 3580.5 2515.5 3577.14 2515.5 3573Z" stroke="#000000" stroke-width="4.58333" stroke-miterlimit="8" fill-rule="evenodd"/><path d="M2515.5 3639C2515.5 3634.86 2518.63 3631.5 2522.5 3631.5 2526.37 3631.5 2529.5 3634.86 2529.5 3639 2529.5 3643.14 2526.37 3646.5 2522.5 3646.5 2518.63 3646.5 2515.5 3643.14 2515.5 3639Z" stroke="#000000" stroke-width="4.58333" stroke-miterlimit="8" fill-rule="evenodd"/><path d="M2515.5 3704.5C2515.5 3700.08 2518.63 3696.5 2522.5 3696.5 2526.37 3696.5 2529.5 3700.08 2529.5 3704.5 2529.5 3708.92 2526.37 3712.5 2522.5 3712.5 2518.63 3712.5 2515.5 3708.92 2515.5 3704.5Z" stroke="#000000" stroke-width="4.58333" stroke-miterlimit="8" fill-rule="evenodd"/><path d="M2515.5 3770.5C2515.5 3766.08 2518.63 3762.5 2522.5 3762.5 2526.37 3762.5 2529.5 3766.08 2529.5 3770.5 2529.5 3774.92 2526.37 3778.5 2522.5 3778.5 2518.63 3778.5 2515.5 3774.92 2515.5 3770.5Z" stroke="#000000" stroke-width="4.58333" stroke-miterlimit="8" fill-rule="evenodd"/><path d="M2515.5 3839.5C2515.5 3835.08 2518.63 3831.5 2522.5 3831.5 2526.37 3831.5 2529.5 3835.08 2529.5 3839.5 2529.5 3843.92 2526.37 3847.5 2522.5 3847.5 2518.63 3847.5 2515.5 3843.92 2515.5 3839.5Z" stroke="#000000" stroke-width="4.58333" stroke-miterlimit="8" fill-rule="evenodd"/><path d="M2515.5 3908C2515.5 3903.86 2518.63 3900.5 2522.5 3900.5 2526.37 3900.5 2529.5 3903.86 2529.5 3908 2529.5 3912.14 2526.37 3915.5 2522.5 3915.5 2518.63 3915.5 2515.5 3912.14 2515.5 3908Z" stroke="#000000" stroke-width="4.58333" stroke-miterlimit="8" fill-rule="evenodd"/><path d="M2529.3 3352.7C2531.95 3352.7 2534.23 3352.92 2536.15 3353.35L2534.57 3360.24 2531 3360.24C2530.62 3358.7 2530.13 3357.59 2529.52 3356.91 2528.91 3356.24 2528.01 3355.9 2526.83 3355.9 2525.29 3355.9 2523.98 3356.33 2522.92 3357.18 2521.85 3358.03 2520.94 3359.29 2520.18 3360.97 2519.42 3362.64 2518.72 3364.9 2518.07 3367.74L2517.06 3372.15 2527.47 3372.15 2526.58 3376.25 2516.13 3376.25 2508.59 3411.59C2507.35 3417.45 2505.44 3421.82 2502.87 3424.7 2500.31 3427.57 2497.08 3429.01 2493.19 3429.01 2492.05 3429.01 2491.16 3428.94 2490.51 3428.81L2491.2 3425.24C2491.47 3425.32 2492.11 3425.36 2493.11 3425.36 2494.32 3425.36 2495.36 3425.05 2496.23 3424.43 2497.09 3423.81 2497.9 3422.73 2498.64 3421.19 2499.38 3419.65 2500.06 3417.52 2500.69 3414.79L2509.4 3376.25 2502.55 3376.25 2503.16 3373.45C2504.97 3373.34 2506.27 3373.19 2507.07 3373 2507.87 3372.81 2508.49 3372.53 2508.93 3372.15 2509.38 3371.77 2509.76 3371.28 2510.07 3370.67 2510.38 3370.07 2510.78 3368.95 2511.26 3367.33 2512.7 3362.47 2514.9 3358.81 2517.89 3356.37 2520.88 3353.92 2524.68 3352.7 2529.3 3352.7Z" fill-rule="evenodd"/><text fill="#000000" fill-opacity="0" font-family="Arial,Arial_MSFontService,sans-serif" font-size="76.313" x="2490.51" y="3419.47">ğ‘“</text><path d="M2537.8 3397.63 2539.26 3397.63 2534.85 3417.46C2534.57 3418.64 2534.38 3419.57 2534.27 3420.26 2534.16 3420.96 2534.11 3421.58 2534.11 3422.14 2534.11 3422.9 2534.26 3423.44 2534.57 3423.78 2534.88 3424.12 2535.34 3424.29 2535.95 3424.29 2536.31 3424.29 2536.67 3424.22 2537.03 3424.08 2537.38 3423.94 2537.77 3423.72 2538.17 3423.42 2538.58 3423.12 2539.03 3422.74 2539.51 3422.27 2540 3421.81 2540.54 3421.25 2541.14 3420.59L2543.16 3422.56C2542.13 3423.61 2541.19 3424.5 2540.35 3425.22 2539.5 3425.95 2538.7 3426.54 2537.95 3427 2537.19 3427.45 2536.45 3427.78 2535.73 3427.98 2535 3428.18 2534.24 3428.28 2533.42 3428.28 2532.67 3428.28 2531.99 3428.14 2531.38 3427.86 2530.78 3427.58 2530.25 3427.2 2529.82 3426.71 2529.38 3426.23 2529.04 3425.65 2528.8 3424.97 2528.57 3424.3 2528.45 3423.55 2528.45 3422.74 2528.45 3422.08 2528.53 3421.27 2528.69 3420.29 2528.84 3419.32 2529.05 3418.26 2529.3 3417.12 2529.54 3415.98 2529.82 3414.78 2530.12 3413.53 2530.41 3412.28 2530.71 3411.04 2530.99 3409.81 2531.28 3408.58 2531.54 3407.39 2531.77 3406.25 2532 3405.11 2532.16 3404.07 2532.26 3403.14 2532.3 3402.98 2532.32 3402.83 2532.32 3402.68 2532.32 3402.53 2532.32 3402.39 2532.32 3402.27 2532.28 3401.5 2532.01 3400.93 2531.5 3400.58 2530.99 3400.22 2530.1 3400.02 2528.8 3399.98L2529.16 3397.96ZM2536.07 3385.62 2542.03 3385.62 2540.57 3392.03 2534.67 3392.03Z" fill-rule="evenodd"/><text fill="#000000" fill-opacity="0" font-family="Arial,Arial_MSFontService,sans-serif" font-size="42.6523" x="2528.45" y="3422.95">ğ‘–</text><path d="M2952.83 3700.39C2955.47 3700.39 2957.76 3700.6 2959.68 3701.04L2958.09 3707.93 2954.53 3707.93C2954.15 3706.39 2953.66 3705.28 2953.05 3704.6 2952.44 3703.93 2951.54 3703.59 2950.35 3703.59 2948.81 3703.59 2947.51 3704.02 2946.44 3704.87 2945.38 3705.72 2944.46 3706.98 2943.71 3708.66 2942.95 3710.33 2942.25 3712.59 2941.6 3715.42L2940.59 3719.84 2951 3719.84 2950.11 3723.93 2939.66 3723.93 2932.12 3759.27C2930.87 3765.14 2928.97 3769.51 2926.4 3772.39 2923.84 3775.26 2920.61 3776.7 2916.72 3776.7 2915.58 3776.7 2914.69 3776.63 2914.04 3776.5L2914.73 3772.93C2915 3773.01 2915.64 3773.05 2916.64 3773.05 2917.85 3773.05 2918.89 3772.74 2919.76 3772.12 2920.62 3771.5 2921.42 3770.42 2922.17 3768.88 2922.91 3767.34 2923.59 3765.2 2924.21 3762.48L2932.93 3723.93 2926.08 3723.93 2926.69 3721.14C2928.5 3721.03 2929.8 3720.88 2930.6 3720.69 2931.39 3720.5 2932.02 3720.22 2932.46 3719.84 2932.91 3719.46 2933.29 3718.97 2933.6 3718.36 2933.91 3717.75 2934.31 3716.64 2934.79 3715.02 2936.22 3710.16 2938.43 3706.5 2941.42 3704.06 2944.4 3701.61 2948.21 3700.39 2952.83 3700.39Z" fill-rule="evenodd"/><text fill="#000000" fill-opacity="0" font-family="Arial,Arial_MSFontService,sans-serif" font-size="76.313" x="2914.04" y="3767.16">ğ‘“</text><path d="M2954.64 3745.02C2956.11 3745.02 2957.25 3745.5 2958.05 3746.46 2958.86 3747.43 2959.26 3748.69 2959.26 3750.26 2959.26 3751.15 2959.12 3751.95 2958.84 3752.64L2959.26 3752.82C2961.26 3750.14 2963.21 3748.17 2965.11 3746.91 2967.01 3745.65 2968.96 3745.02 2970.96 3745.02 2971.72 3745.02 2972.43 3745.06 2973.09 3745.14 2973.76 3745.22 2974.4 3745.32 2975.01 3745.44L2973.5 3752.64 2970.04 3752.64C2969.94 3751.45 2969.69 3750.6 2969.28 3750.08 2968.87 3749.57 2968.28 3749.31 2967.51 3749.31 2967.05 3749.29 2966.53 3749.43 2965.93 3749.72 2965.33 3750.02 2964.7 3750.45 2964.04 3751.01 2963.37 3751.56 2962.71 3752.22 2962.06 3752.97 2961.4 3753.73 2960.78 3754.55 2960.2 3755.44 2959.61 3756.34 2959.1 3757.29 2958.66 3758.29 2958.23 3759.29 2957.9 3760.3 2957.68 3761.31L2954.64 3775.43 2948.8 3775.43 2953.27 3756.01C2953.55 3754.86 2953.74 3753.9 2953.85 3753.15 2953.96 3752.4 2954.02 3751.76 2954.02 3751.24 2954.02 3749.79 2953.43 3749.07 2952.26 3749.07 2951.88 3749.07 2951.51 3749.14 2951.14 3749.29 2950.77 3749.44 2950.39 3749.67 2950 3749.96 2949.6 3750.26 2949.16 3750.64 2948.68 3751.09 2948.21 3751.55 2947.67 3752.09 2947.08 3752.7L2945.02 3750.77C2946.01 3749.75 2946.92 3748.89 2947.75 3748.16 2948.57 3747.44 2949.36 3746.84 2950.11 3746.37 2950.87 3745.91 2951.61 3745.56 2952.35 3745.35 2953.08 3745.13 2953.85 3745.02 2954.64 3745.02Z" fill-rule="evenodd"/><text fill="#000000" fill-opacity="0" font-family="Arial,Arial_MSFontService,sans-serif" font-size="30.4106" x="2945.02" y="3771.63">ğ‘Ÿ</text><path d="M2259 4726C2259 4756.1 2254.93 4780.5 2249.92 4780.5L2000.58 4780.5C1995.57 4780.5 1991.5 4804.9 1991.5 4835 1991.5 4804.9 1987.43 4780.5 1982.42 4780.5L1733.08 4780.5C1728.07 4780.5 1724 4756.1 1724 4726" stroke="#000000" stroke-width="2.29167" stroke-miterlimit="8" fill="none" fill-rule="evenodd"/><text font-family="Arial,Arial_MSFontService,sans-serif" font-weight="400" font-size="64" transform="matrix(1 0 0 1 1848.99 4891)">Backbone</text><path d="M1670 4726C1670 4752.51 1666.42 4774 1662 4774L1605.5 4774C1601.08 4774 1597.5 4795.49 1597.5 4822 1597.5 4795.49 1593.92 4774 1589.5 4774L1533 4774C1528.58 4774 1525 4752.51 1525 4726" stroke="#000000" stroke-width="2.29167" stroke-miterlimit="8" fill="none" fill-rule="evenodd"/><text font-family="Arial,Arial_MSFontService,sans-serif" font-weight="400" font-size="64" transform="matrix(1 0 0 1 1519.57 4891)">Inputs</text><path d="M3027 4726C3027 4751.68 3023.53 4772.5 3019.25 4772.5L2739.75 4772.5C2735.47 4772.5 2732 4793.32 2732 4819 2732 4793.32 2728.53 4772.5 2724.25 4772.5L2444.75 4772.5C2440.47 4772.5 2437 4751.68 2437 4726" stroke="#000000" stroke-width="2.29167" stroke-miterlimit="8" fill="none" fill-rule="evenodd"/><text font-family="Arial,Arial_MSFontService,sans-serif" font-weight="400" font-size="73" transform="matrix(1 0 0 1 2458.32 4900)">Category<tspan font-size="73" x="317.969" y="0">remap</tspan><tspan font-size="64" x="893.643" y="-608">Predictions</tspan></text><path d="M702 3323.58C702 3288.46 730.464 3260 765.576 3260L3737.42 3260C3772.54 3260 3801 3288.46 3801 3323.58L3801 4961.42C3801 4996.54 3772.54 5025 3737.42 5025L765.576 5025C730.464 5025 702 4996.54 702 4961.42Z" stroke="#7030A0" stroke-width="13.75" stroke-miterlimit="8" fill="none" fill-rule="evenodd"/><text fill="#7030A0" font-family="Arial,Arial_MSFontService,sans-serif" font-weight="700" font-size="83" transform="matrix(1 0 0 1 809.94 3412)">Inference</text><path d="M2840.81 1497.5 2840.81 1843.31 2820.19 1843.31 2820.19 1497.5ZM2861.44 1833 2830.5 1894.87 2799.56 1833Z"/><rect x="2579.5" y="1611.5" width="527" height="111" stroke="#000000" stroke-width="4.58333" stroke-miterlimit="8" fill="#FFFFFF"/><text font-family="Arial,Arial_MSFontService,sans-serif" font-weight="400" font-size="64" transform="matrix(1 0 0 1 2625.84 1689)">Freeze<tspan font-size="64" x="216.563" y="0">weights</tspan></text></g></svg>